<?xml version="1.0" ?>
<svg  version="1.1" viewBox="0 0 1000 1000" width="50" height="50" xml:space="preserve" xmlns="http://www.w3.org/2000/svg" xmlns:xlink="http://www.w3.org/1999/xlink">
<g id="_x30_1_Net"/>
<g id="_x30_2_Android"/>
<g id="Layer_3"/>
<g id="Layer_4"><g><g><g>
<path d="M755.391,638.525      v68.436h-76.135l0.107-67.902c11.762,1.711,23.739,2.459,36.036,2.459C728.979,641.518,742.345,640.556,755.391,638.525z" style="fill:none;stroke:#EB6440;stroke-width:20;stroke-linecap:round;stroke-linejoin:round;"/><path d="M990,366.917      c-0.214,116.556-72.821,216.323-175.582,255.995c-13.046,5.133-26.627,9.303-40.635,12.297      c-6.095,1.283-12.19,2.459-18.392,3.315c-13.046,2.032-26.413,2.994-39.992,2.994c-12.297,0-24.274-0.749-36.036-2.459      c-7.699-0.856-15.185-2.246-22.669-3.849c-14.008-2.994-27.482-7.165-40.635-12.19c-41.383-15.933-77.739-41.597-106.504-73.997      c-42.88-48.548-69.078-112.172-69.078-182.106c0-151.737,123.079-274.815,274.815-274.815      c70.04,0,133.879,26.091,182.319,69.292C954.177,211.866,990,285.221,990,366.917z" style="fill:none;stroke:#EB6440;stroke-width:20;stroke-linecap:round;stroke-linejoin:round;"/><path d="M786.938,719.835      v195.64c0,38.14-29.457,71.362-67.582,72.397c-39.401,1.069-71.582-30.586-71.582-69.618V719.835      c0-7.116,5.769-12.885,12.885-12.885h113.393C781.169,706.95,786.938,712.719,786.938,719.835z" style="fill:none;stroke:#EB6440;stroke-width:20;stroke-linecap:round;stroke-linejoin:round;"/></g></g><g><path d="     M592.13,678.053v264.089c0,24.923-20.284,45.128-45.207,45.128H135.207c-25.001,0-45.207-20.206-45.207-45.128V678.053     c0-24.923,20.206-45.128,45.207-45.128h411.715C571.845,632.925,592.13,653.131,592.13,678.053z" style="fill:none;stroke:#EB6440;stroke-width:20;stroke-linecap:round;stroke-linejoin:round;stroke-miterlimit:10;"/><path d="     M592.13,678.053v27.675c0,36.087-29.326,65.413-65.413,65.413h-38.525V747.24c0-7.233-5.897-13.13-13.13-13.13h-32.549     c-7.312,0-13.13,5.897-13.13,13.13v23.901H252.746V747.24c0-7.233-5.897-13.13-13.13-13.13h-32.549     c-7.312,0-13.13,5.897-13.13,13.13v23.901h-38.525c-36.087,0-65.413-29.326-65.413-65.413v-27.675     c0-24.923,20.206-45.128,45.207-45.128h411.793C571.924,632.925,592.13,653.131,592.13,678.053z" style="fill:none;stroke:#EB6440;stroke-width:20;stroke-linecap:round;stroke-linejoin:round;stroke-miterlimit:10;"/><g><path d="      M252.746,747.24v49.767c0,7.233-5.897,13.13-13.13,13.13h-32.549c-7.312,0-13.13-5.897-13.13-13.13V747.24      c0-7.233,5.818-13.13,13.13-13.13h32.549C246.849,734.11,252.746,740.007,252.746,747.24z" style="fill:none;stroke:#EB6440;stroke-width:20;stroke-linecap:round;stroke-linejoin:round;stroke-miterlimit:10;"/><path d="      M488.192,747.24v49.767c0,7.233-5.897,13.13-13.13,13.13h-32.549c-7.312,0-13.13-5.897-13.13-13.13V747.24      c0-7.233,5.818-13.13,13.13-13.13h32.549C482.296,734.11,488.192,740.007,488.192,747.24z" style="fill:none;stroke:#EB6440;stroke-width:20;stroke-linecap:round;stroke-linejoin:round;stroke-miterlimit:10;"/></g><path d="     M441.373,597.938v34.987H240.756v-34.987c0-18.004,14.623-32.627,32.628-32.627h135.362     C426.75,565.311,441.373,579.934,441.373,597.938z" style="fill:none;stroke:#EB6440;stroke-width:20;stroke-linecap:round;stroke-linejoin:round;stroke-miterlimit:10;"/></g><g><line style="fill:none;stroke:#EB6440;stroke-width:20;stroke-linecap:round;stroke-linejoin:round;stroke-miterlimit:10;" x1="579.329" x2="579.329" y1="434.415" y2="479.076"/><line style="fill:none;stroke:#EB6440;stroke-width:20;stroke-linecap:round;stroke-linejoin:round;stroke-miterlimit:10;" x1="628.938" x2="628.938" y1="404.881" y2="479.764"/><line style="fill:none;stroke:#EB6440;stroke-width:20;stroke-linecap:round;stroke-linejoin:round;stroke-miterlimit:10;" x1="678.548" x2="678.548" y1="381.455" y2="480.453"/><line style="fill:none;stroke:#EB6440;stroke-width:20;stroke-linecap:round;stroke-linejoin:round;stroke-miterlimit:10;" x1="728.157" x2="728.157" y1="410.528" y2="481.141"/><line style="fill:none;stroke:#EB6440;stroke-width:20;stroke-linecap:round;stroke-linejoin:round;stroke-miterlimit:10;" x1="777.766" x2="777.766" y1="381.455" y2="477.698"/><line style="fill:none;stroke:#EB6440;stroke-width:20;stroke-linecap:round;stroke-linejoin:round;stroke-miterlimit:10;" x1="827.376" x2="827.376" y1="348.162" y2="478.387"/><path d="     M550.034,401.712l99.913-75.554c7.172-5.424,17.166-5.697,24.644-0.675l44.679,30.002c7.698,5.17,18.028,4.713,25.205-1.115     l121.735-100.245" style="fill:none;stroke:#EB6440;stroke-width:20;stroke-linecap:round;stroke-linejoin:round;stroke-miterlimit:10;"/><polyline points="     806.976,252.477 866.211,254.125 856.321,312.551    " style="fill:none;stroke:#EB6440;stroke-width:20;stroke-linecap:round;stroke-linejoin:round;stroke-miterlimit:10;"/></g><path d="M715.399,598.818    c-10.8,0-20.576-0.66-29.882-2.016l-1.442-0.184c-5.279-0.587-10.967-1.56-18.445-3.162c-11.172-2.387-22.4-5.765-34.333-10.324    c-34.114-13.135-65.205-34.747-89.811-62.46c-37.575-42.541-58.307-97.175-58.307-153.755    c0-127.988,104.125-232.116,232.113-232.116c56.969,0,111.624,20.763,153.897,58.463C918.826,237.553,947.3,300.85,947.3,366.917    c-0.177,95.09-59.756,181.993-148.261,216.162c-11.419,4.49-22.838,7.947-34.187,10.376c-4.16,0.872-9.796,2.009-15.293,2.766    l-0.744,0.111C738.23,597.98,726.985,598.818,715.399,598.818z" style="fill:none;stroke:#EB6440;stroke-width:20;stroke-linecap:round;stroke-linejoin:round;"/></g></g><g id="Layer_5"/><g id="Layer_6"/><g id="Layer_7"/><g id="Layer_8"/><g id="Layer_9"/><g id="Layer_10"/><g id="Layer_11"/><g id="Layer_12"/><g id="Layer_13"/><g id="Layer_14"/><g id="Layer_15"/><g id="Layer_16"/><g id="Layer_17"/><g id="Layer_18"/><g id="Layer_19"/><g id="Layer_20"/><g id="Layer_21"/>
</svg>